first trial
nRows=4
nColumns=165

# SIMM Motion File Header:
name first trial
datacolumns 165
datarows 4
otherdata 1
range 0.50000000000000000000 0.55000000000000004000
endheader
time	pelvis_tx	pelvis_ty	pelvis_tz	pelvis_tilt	pelvis_list	pelvis_rotation	hip_flexion_r	hip_adduction_r	hip_rotation_r	knee_angle_r	ankle_angle_r	subtalar_angle_r	mtp_angle_r	hip_flexion_l	hip_adduction_l	hip_rotation_l	knee_angle_l	ankle_angle_l	subtalar_angle_l	mtp_angle_l	lumbar_extension	lumbar_bending	lumbar_rotation	R.ASIS_tx	R.ASIS_ty	R.ASIS_tz	L.ASIS_tx	L.ASIS_ty	L.ASIS_tz	V.Sacral_tx	V.Sacral_ty	V.Sacral_tz	R.Thigh.Upper_tx	R.Thigh.Upper_ty	R.Thigh.Upper_tz	R.Thigh.Front_tx	R.Thigh.Front_ty	R.Thigh.Front_tz	R.Thigh.Rear_tx	R.Thigh.Rear_ty	R.Thigh.Rear_tz	L.Thigh.Upper_tx	L.Thigh.Upper_ty	L.Thigh.Upper_tz	L.Thigh.Front_tx	L.Thigh.Front_ty	L.Thigh.Front_tz	L.Thigh.Rear_tx	L.Thigh.Rear_ty	L.Thigh.Rear_tz	R.Shank.Upper_tx	R.Shank.Upper_ty	R.Shank.Upper_tz	R.Shank.Front_tx	R.Shank.Front_ty	R.Shank.Front_tz	R.Shank.Rear_tx	R.Shank.Rear_ty	R.Shank.Rear_tz	L.Shank.Upper_tx	L.Shank.Upper_ty	L.Shank.Upper_tz	L.Shank.Front_tx	L.Shank.Front_ty	L.Shank.Front_tz	L.Shank.Rear_tx	L.Shank.Rear_ty	L.Shank.Rear_tz	R.Heel_tx	R.Heel_ty	R.Heel_tz	R.Midfoot.Sup_tx	R.Midfoot.Sup_ty	R.Midfoot.Sup_tz	R.Midfoot.Lat_tx	R.Midfoot.Lat_ty	R.Midfoot.Lat_tz	R.Toe.Tip_tx	R.Toe.Tip_ty	R.Toe.Tip_tz	L.Heel_tx	L.Heel_ty	L.Heel_tz	L.Midfoot.Sup_tx	L.Midfoot.Sup_ty	L.Midfoot.Sup_tz	L.Midfoot.Lat_tx	L.Midfoot.Lat_ty	L.Midfoot.Lat_tz	L.Toe.Tip_tx	L.Toe.Tip_ty	L.Toe.Tip_tz	Sternum_tx	Sternum_ty	Sternum_tz	R.Acromium_tx	R.Acromium_ty	R.Acromium_tz	L.Acromium_tx	L.Acromium_ty	L.Acromium_tz	R.Bicep_tx	R.Bicep_ty	R.Bicep_tz	L.Bicep_tx	L.Bicep_ty	L.Bicep_tz	R.Elbow_tx	R.Elbow_ty	R.Elbow_tz	L.Elbow_tx	L.Elbow_ty	L.Elbow_tz	R.Wrist.Med_tx	R.Wrist.Med_ty	R.Wrist.Med_tz	R.Wrist.Lat_tx	R.Wrist.Lat_ty	R.Wrist.Lat_tz	L.Wrist.Med_tx	L.Wrist.Med_ty	L.Wrist.Med_tz	L.Wrist.Lat_tx	L.Wrist.Lat_ty	L.Wrist.Lat_tz	R.Toe.Lat_tx	R.Toe.Lat_ty	R.Toe.Lat_tz	R.Toe.Med_tx	R.Toe.Med_ty	R.Toe.Med_tz	L.Toe.Lat_tx	L.Toe.Lat_ty	L.Toe.Lat_tz	L.Toe.Med_tx	L.Toe.Med_ty	L.Toe.Med_tz	R.Temple_tx	R.Temple_ty	R.Temple_tz	L.Temple_tx	L.Temple_ty	L.Temple_tz	Top.Head_tx	Top.Head_ty	Top.Head_tz	ground_force_vx	ground_force_vy	ground_force_vz	ground_force_px	ground_force_py	ground_force_pz	ground_force_vx	ground_force_vy	ground_force_vz	ground_force_px	ground_force_py	ground_force_pz	ground_torque_x	ground_torque_y	ground_torque_z	ground_torque_x	ground_torque_y	ground_torque_z
      0.50000000000000000000	      0.58979038325851030000	      1.03317669587242710000	     -0.02175421782307854900	      4.83227998552137540000	      0.44500645221771323000	     -0.19967662195477262000	     19.25296658866297500000	     -4.43054770674536250000	    -10.25141514234890000000	    -19.88552911045664800000	      0.94896656872039498000	     -0.00035219606357437362	     -0.00000042841565497299	    -14.77514435170049900000	      3.66214743588113300000	      0.22417106680861540000	     -2.03789082580427740000	      7.35235231606094340000	      0.00000975575854981835	     -0.00000004483870168801	    -17.04953321649444600000	     -2.28963344333052100000	     -5.93859011869228140000	      0.60728925000000000000	      1.07613330000000000000	      0.11012426000000002000	      0.61517627000000008000	      1.05539953999999980000	     -0.15069684000000000000	      0.41250905999999998000	      1.06724730999999990000	     -0.01534607000000000000	      0.66002826000000003000	      0.77078186000000004000	      0.17050005999999998000	      0.74122162000000003000	      0.73205316000000009000	      0.08292186999999999500	      0.69811859000000009000	      0.65593738000000001000	      0.17166190000000001000	      0.50436981000000003000	      0.76519128000000003000	     -0.19380721000000001000	      0.58952886999999998000	      0.71333563000000000000	     -0.13045894999999999000	      0.48194595000000001000	      0.65731561000000005000	     -0.17029903999999998000	      0.67613623000000000000	      0.48000429999999999000	      0.15979152999999999000	      0.76240850999999998000	      0.45290540000000001000	      0.11967175000000001000	      0.69873401000000002000	      0.39617511000000005000	      0.17208484000000002000	      0.41998791999999996000	      0.44748241999999999000	     -0.15937730000000000000	      0.46575790000000000000	      0.39150256000000000000	     -0.10995884000000000000	      0.39282342999999997000	      0.40830941999999998000	     -0.16410988000000001000	      0.67307799999999995000	      0.07849554000000000300	      0.08391925000000000100	      0.81684271000000008000	      0.10876972000000001000	      0.08170244999999999600	      0.79312683000000006000	      0.08423054000000000700	      0.18263784999999999000	      0.95268011000000008000	      0.09490895000000000600	      0.14851609999999998000	      0.27588315000000002000	      0.08774479999999999800	     -0.05981427000000000300	      0.44563387999999998000	      0.07726612000000000800	     -0.03354472000000000000	      0.42671628000000000000	      0.06593163000000000500	     -0.12879712000000001000	      0.55449010999999992000	      0.04622046000000000500	     -0.06146882999999999500	      0.64417846999999995000	      1.37157031000000010000	     -0.03278289000000000200	      0.53540088000000008000	      1.46977794999999990000	      0.16879329000000001000	      0.59453986000000003000	      1.48293323000000020000	     -0.24440395000000001000	      0.51063592999999996000	      1.27356334999999990000	      0.21846359000000001000	      0.63633771000000006000	      1.24855187999999990000	     -0.26464010999999998000	      0.44918381000000002000	      1.17961754999999990000	      0.24389465000000002000	      0.60638347999999997000	      1.14347229000000010000	     -0.30252939000000001000	      0.57035736000000004000	      0.93921783000000003000	      0.26211050000000002000	      0.52153516000000000000	      0.92890613000000000000	      0.30473032000000000000	      0.78582390999999996000	      0.98258997000000003000	     -0.22017924000000000000	      0.75212787000000003000	      0.94717931999999994000	     -0.27858285999999999000	      0.87790759000000007000	      0.06653928000000000600	      0.21376173000000001000	      0.90610687000000001000	      0.08765826000000000200	      0.10833647000000000000	      0.48536365000000004000	      0.03855096000000000200	     -0.13760668999999998000	      0.50471628000000002000	      0.04904999000000000200	     -0.03693923000000000300	      0.71728216999999994000	      1.59012438999999990000	      0.05102221000000000500	      0.73485840000000002000	      1.59323474000000020000	     -0.08670229000000000100	      0.73363196000000008000	      1.76656604000000010000	     -0.00915623000000000130	      0.00000000000000000000	      0.00000000000000000000	      0.00000000000000000000	      0.69913886999999997000	     -0.00749999999999999970	      0.10736799000000000000	     28.45568456999999900000	    663.19062033000000000000	     48.17109596000000200000	      0.47597044999999999000	     -0.00749999999999999970	     -0.09399192000000000700	      0.00000000000000000000	      0.00000000000000000000	      0.00000000000000000000	      0.00000000000000000000	      1.34667794000000000000	      0.00000000000000000000
      0.51700000000000002000	      0.58848815987056491000	      1.02962882297190790000	     -0.02097467700318526200	      4.68375088027530850000	      1.00672056208706470000	     -0.11022779190635222000	     18.76735779982350400000	     -4.48031747738819860000	     -9.70839065366115330000	    -13.65755478012769200000	      0.66103767450188411000	     -0.00025793549554142218	     -0.00000050540005810310	    -16.05147252898298800000	      4.15715116359079940000	      0.49717500726682645000	     -1.42837439123578340000	      7.77729163287124250000	      0.00001563688279169338	     -0.00000042882233676903	    -16.93091579061721000000	     -2.76160443026345790000	     -6.11780288356973050000	      0.60600982999999997000	      1.07212157999999990000	      0.11090735000000000000	      0.61345781999999993000	      1.05269775000000010000	     -0.15003427000000000000	      0.41148079999999998000	      1.06490734999999990000	     -0.01388082000000000000	      0.65350591999999996000	      0.76482556000000002000	      0.16986315999999999000	      0.73384766000000001000	      0.72436102000000002000	      0.08058566000000000300	      0.69069860999999999000	      0.64921142999999992000	      0.17040075999999998000	      0.49766788000000006000	      0.76432213999999998000	     -0.19353116000000001000	      0.58227136000000002000	      0.71100549000000002000	     -0.13084675999999998000	      0.47372876000000003000	      0.65662328999999997000	     -0.17009701999999999000	      0.67623877000000010000	      0.47213705000000000000	      0.15851988000000000000	      0.76493323000000002000	      0.45160989000000001000	      0.11869750000000001000	      0.70599634000000000000	      0.39063553000000001000	      0.17192935000000001000	      0.40661710000000001000	      0.44826265999999998000	     -0.15977639999999999000	      0.45090759000000002000	      0.39142266999999997000	     -0.11042699000000000000	      0.37893387000000001000	      0.40940762000000003000	     -0.16419041000000001000	      0.70999915000000002000	      0.06963822999999999500	      0.08775310000000000100	      0.84934929999999997000	      0.11342619000000001000	      0.08285662000000000600	      0.82989557000000003000	      0.08786561000000001100	      0.18455385000000002000	      0.98676404000000006000	      0.11337098000000001000	      0.14776392000000002000	      0.25758643000000003000	      0.08930141999999999200	     -0.05975679999999999900	      0.42699506000000004000	      0.07772550000000000300	     -0.03341606000000000400	      0.40806612999999997000	      0.06593500000000000700	     -0.12923410000000002000	      0.53550330000000002000	      0.04596267999999999900	     -0.06190777000000000100	      0.64295441000000009000	      1.36809949000000010000	     -0.03076239999999999900	      0.53465015000000005000	      1.46633068999999990000	      0.17080008000000002000	      0.59316357000000008000	      1.47998865000000010000	     -0.24262729999999999000	      0.51005484000000001000	      1.26996863000000020000	      0.22011667000000001000	      0.63495604999999999000	      1.24624683000000000000	     -0.26402667000000002000	      0.44873363999999999000	      1.17581604000000000000	      0.24528600000000000000	      0.60591479000000004000	      1.14046227999999990000	     -0.30220505000000003000	      0.57008159999999997000	      0.93556890999999998000	      0.26217342999999999000	      0.52179094999999998000	      0.92485167999999995000	      0.30577957000000000000	      0.78715539999999995000	      0.98316558999999992000	     -0.21933264000000000000	      0.75704125999999994000	      0.94704351999999992000	     -0.27839908000000002000	      0.91719196000000003000	      0.07841611000000001100	      0.21344109000000000000	      0.94077106000000010000	      0.10163078000000000000	      0.10820202999999999000	      0.46526724000000003000	      0.03815454000000000100	     -0.13787284999999999000	      0.48615381000000002000	      0.04880616000000000100	     -0.03739614000000000100	      0.71639178000000003000	      1.58645459000000000000	      0.05310258999999999800	      0.73404809999999998000	      1.59019543000000010000	     -0.08508916000000001100	      0.73394018999999999000	      1.76314355000000010000	     -0.00725531000000000010	      0.00000000000000000000	      0.00000000000000000000	      0.00000000000000000000	      0.71900947000000004000	     -0.00749999999999999970	      0.10683086999999999000	     40.06065768999999900000	    681.40023030999998000000	     50.40292284000000200000	      0.45763324999999999000	     -0.00749999999999999970	     -0.09427251000000000400	      0.00000000000000000000	      0.00000000000000000000	      0.00000000000000000000	      0.00000000000000000000	      0.86806086000000005000	      0.00000000000000000000
      0.53300000000000003000	      0.58745321853391130000	      1.02571325054713800000	     -0.02046904083189957400	      4.51120879302830340000	      1.57151740773499960000	      0.20376847709321869000	     18.28328669085673800000	     -4.67320704540012330000	     -8.82559991132478670000	     -8.06481613090296530000	      0.66560150417811770000	     -0.00016837219854221180	     -0.00000072895926005777	    -17.18960835289016100000	      4.57371760318984320000	      1.05048109385049360000	     -1.09212956657986830000	      8.33668061168795660000	      0.00001921758931975719	      0.00000003625774771545	    -16.75958442881340500000	     -3.15803534174337220000	     -6.26303392784360910000	      0.60616663000000004000	      1.06785522000000000000	      0.11183772000000000000	      0.61110045999999996000	      1.04963940000000000000	     -0.14970670000000003000	      0.41052548000000000000	      1.06226891999999990000	     -0.01277202000000000000	      0.64849469000000004000	      0.75868237000000005000	      0.16984746000000001000	      0.72554107999999995000	      0.71610077000000005000	      0.07839767000000000300	      0.68371325999999999000	      0.64216503999999996000	      0.16974637000000001000	      0.49144589000000005000	      0.76338280999999997000	     -0.19320231999999998000	      0.57538067999999998000	      0.70782354999999997000	     -0.13021501000000002000	      0.46586057000000003000	      0.65649847000000006000	     -0.17064573999999999000	      0.67586389000000002000	      0.46408911000000003000	      0.15901318000000000000	      0.76593719000000005000	      0.45069603999999996000	      0.11779874000000000000	      0.71350292999999998000	      0.38579184000000000000	      0.17228841000000000000	      0.39473865000000002000	      0.44827614999999998000	     -0.15930733000000000000	      0.43677895999999999000	      0.39054012999999999000	     -0.11111211000000000000	      0.36572635000000003000	      0.41050385000000000000	     -0.16435425000000001000	      0.74285431000000002000	      0.06388541999999999800	      0.09204451000000001000	      0.87719385000000005000	      0.11965545000000001000	      0.08321275000000000200	      0.86251630000000001000	      0.09387979999999999900	      0.18585759999999998000	      1.01546161000000000000	      0.13302934000000000000	      0.14508495999999999000	      0.23948900000000001000	      0.09085392000000000500	     -0.05981831000000000000	      0.40869083000000000000	      0.07842574999999998900	     -0.03323825000000000400	      0.39001546999999998000	      0.06617790999999999300	     -0.12995900000000002000	      0.51635766999999999000	      0.04564381000000000000	     -0.06234344000000000000	      0.64189568999999991000	      1.36488831000000000000	     -0.02931862999999999800	      0.53496465999999998000	      1.46209900000000000000	      0.17271560999999999000	      0.59147821000000000000	      1.47714319000000010000	     -0.24025862000000001000	      0.51040280000000005000	      1.26640588000000000000	      0.22183675999999999000	      0.63436365000000006000	      1.24333264000000020000	     -0.26247122000000001000	      0.44861309999999999000	      1.17167273000000010000	      0.24711967000000001000	      0.60376556000000003000	      1.13799829000000010000	     -0.30162094000000000000	      0.57037482000000006000	      0.93214624000000001000	      0.26287769000000000000	      0.52298076999999998000	      0.92095349000000004000	      0.30603964000000000000	      0.78802197000000007000	      0.98263964999999998000	     -0.21841202000000001000	      0.75847821000000004000	      0.94590601000000007000	     -0.27733040999999997000	      0.95087756000000001000	      0.09276676000000000400	      0.21210830999999999000	      0.97001178000000010000	      0.11691836000000001000	      0.10649747999999999000	      0.44575366000000005000	      0.03772970000000000500	     -0.13835434000000002000	      0.46768900000000002000	      0.04859190000000000000	     -0.03783012000000000200	      0.71562603999999996000	      1.58291943000000000000	      0.05487330000000000000	      0.73371307000000008000	      1.58680139000000020000	     -0.08315228000000000900	      0.73291881999999997000	      1.75986401000000000000	     -0.00475553000000000000	      0.00000000000000000000	      0.00000000000000000000	      0.00000000000000000000	      0.73642238000000004000	     -0.00749999999999999970	      0.10637086000000000000	     50.09914800000000000000	    701.35021743000004000000	     52.17625960000000200000	      0.43886695999999997000	     -0.00749999999999999970	     -0.09434886000000000700	      0.00000000000000000000	      0.00000000000000000000	      0.00000000000000000000	      0.00000000000000000000	      0.84795796000000001000	      0.00000000000000000000
      0.55000000000000004000	      0.58697743707487393000	      1.02172470090079240000	     -0.01957801829377161000	      4.41701755915917450000	      2.16271698459549460000	      0.11794103022897766000	     17.84442404272103400000	     -4.90634283404708960000	     -7.30677105134279790000	     -3.42012846409963300000	      0.89972419433088324000	     -0.00009400520230669228	      0.00000124294367345754	    -18.47082757295305900000	      5.11874797889682580000	      1.25910883404424450000	     -0.71826905031978350000	      8.80753590211931760000	      0.00003198141192204280	     -0.00000004018031995523	    -16.63177656265229800000	     -3.57510661354714450000	     -6.28776288040769150000	      0.60610094999999997000	      1.06319689999999990000	      0.11281873000000001000	      0.61082269000000000000	      1.04728406000000000000	     -0.14852525000000000000	      0.40961291999999999000	      1.05932776000000000000	     -0.01207227000000000000	      0.64330993999999997000	      0.75217840999999996000	      0.16988080000000000000	      0.71885370000000004000	      0.70906994999999995000	      0.07686958000000000700	      0.67749908000000003000	      0.63530420000000010000	      0.16958066999999999000	      0.48582443000000003000	      0.76235631999999998000	     -0.19286098000000002000	      0.56961176000000002000	      0.70504394999999997000	     -0.13131595999999998000	      0.45822800000000002000	      0.65574005000000002000	     -0.17005191000000000000	      0.67623981000000000000	      0.45708301000000001000	      0.15951393000000000000	      0.76558667000000002000	      0.45027454000000000000	      0.11662414000000000000	      0.71768578999999999000	      0.38198962000000003000	      0.17258589000000002000	      0.38201458999999999000	      0.44855106000000000000	     -0.15943240000000000000	      0.42527179000000004000	      0.39041451999999999000	     -0.11207219000000000000	      0.35329284999999999000	      0.41156070000000000000	     -0.16452814000000002000	      0.76994408999999997000	      0.06051376000000000000	      0.09594809999999999500	      0.89952202999999997000	      0.12602964999999999000	      0.08282451000000000400	      0.88948267000000003000	      0.10070587000000000000	      0.18634698000000000000	      1.03799657999999990000	      0.15150447000000000000	      0.14119286000000000000	      0.22155753000000003000	      0.09253714999999999900	     -0.06006965999999999700	      0.39066571000000000000	      0.07908334000000000200	     -0.03356961000000000000	      0.37227843999999999000	      0.06648495000000000100	     -0.13084514999999999000	      0.49709874999999998000	      0.04531434999999999600	     -0.06273755000000000300	      0.64178833000000002000	      1.36078735000000010000	     -0.02655871000000000300	      0.53445099000000007000	      1.45753784000000010000	      0.17577332000000001000	      0.59060815000000000000	      1.47425403000000000000	     -0.23798681999999999000	      0.51027929999999999000	      1.26177295000000010000	      0.22409195000000001000	      0.63192272999999999000	      1.24074414000000010000	     -0.26099297999999999000	      0.44877402000000000000	      1.16723363999999990000	      0.24934280000000000000	      0.60253545999999991000	      1.13538562000000010000	     -0.30106085000000005000	      0.57200549000000001000	      0.92747113000000003000	      0.26375534000000000000	      0.52445618000000005000	      0.91677147999999997000	      0.30714743000000000000	      0.78674242999999999000	      0.98117827999999996000	     -0.21786545000000002000	      0.75896814000000001000	      0.94473584000000010000	     -0.27733487000000001000	      0.97945678999999997000	      0.10939651000000000000	      0.21104997000000000000	      0.99313544000000009000	      0.13147713999999999000	      0.10371878000000000000	      0.42692101999999998000	      0.03732714000000000200	     -0.13900963999999999000	      0.44919369999999997000	      0.04834481000000000200	     -0.03827318000000000400	      0.71496704000000000000	      1.57937438999999990000	      0.05783147000000000300	      0.73217340000000009000	      1.58346729000000000000	     -0.08048106000000000700	      0.72967272999999999000	      1.75524731000000010000	     -0.00254823000000000030	      0.00000000000000000000	      0.00000000000000000000	      0.00000000000000000000	      0.75322615999999998000	     -0.00749999999999999970	      0.10593640999999999000	     62.29640780999999800000	    724.03074514000002000000	     54.33041474000000200000	      0.41987190000000002000	     -0.00749999999999999970	     -0.09400168999999999900	      0.00000000000000000000	      0.00000000000000000000	      0.00000000000000000000	      0.00000000000000000000	      0.98272824000000003000	      0.00000000000000000000
